<mxfile host="app.diagrams.net" modified="2024-05-27T11:25:49.409Z" agent="Mozilla/5.0 (Windows NT 10.0; Win64; x64) AppleWebKit/537.36 (KHTML, like Gecko) Chrome/125.0.0.0 Safari/537.36" etag="DJlcXkv08ZkjFNjx4JHn" version="24.4.6" type="device">
  <diagram name="Страница — 1" id="mErGU91o5Xe6dKJxbkIs">
    <mxGraphModel dx="1062" dy="578" grid="1" gridSize="10" guides="1" tooltips="1" connect="1" arrows="1" fold="1" page="1" pageScale="1" pageWidth="827" pageHeight="1169" math="0" shadow="0">
      <root>
        <mxCell id="0" />
        <mxCell id="1" parent="0" />
        <mxCell id="oIkWuxOltCafDGJ3qNke-1" value="" style="shape=umlLifeline;perimeter=lifelinePerimeter;whiteSpace=wrap;html=1;container=1;dropTarget=0;collapsible=0;recursiveResize=0;outlineConnect=0;portConstraint=eastwest;newEdgeStyle={&quot;curved&quot;:0,&quot;rounded&quot;:0};participant=umlActor;" vertex="1" parent="1">
          <mxGeometry x="535" y="90" width="20" height="490" as="geometry" />
        </mxCell>
        <mxCell id="oIkWuxOltCafDGJ3qNke-29" value="" style="html=1;points=[[0,0,0,0,5],[0,1,0,0,-5],[1,0,0,0,5],[1,1,0,0,-5]];perimeter=orthogonalPerimeter;outlineConnect=0;targetShapes=umlLifeline;portConstraint=eastwest;newEdgeStyle={&quot;curved&quot;:0,&quot;rounded&quot;:0};" vertex="1" parent="oIkWuxOltCafDGJ3qNke-1">
          <mxGeometry x="5" y="80" width="10" height="40" as="geometry" />
        </mxCell>
        <mxCell id="oIkWuxOltCafDGJ3qNke-5" value="User" style="text;html=1;align=center;verticalAlign=middle;resizable=0;points=[];autosize=1;strokeColor=none;fillColor=none;" vertex="1" parent="1">
          <mxGeometry x="520" y="60" width="50" height="30" as="geometry" />
        </mxCell>
        <mxCell id="oIkWuxOltCafDGJ3qNke-11" style="edgeStyle=orthogonalEdgeStyle;rounded=0;orthogonalLoop=1;jettySize=auto;html=1;curved=0;endArrow=block;endFill=1;" edge="1" parent="1" source="oIkWuxOltCafDGJ3qNke-9" target="oIkWuxOltCafDGJ3qNke-10">
          <mxGeometry relative="1" as="geometry">
            <Array as="points">
              <mxPoint x="130" y="480" />
              <mxPoint x="130" y="480" />
            </Array>
          </mxGeometry>
        </mxCell>
        <mxCell id="oIkWuxOltCafDGJ3qNke-12" style="edgeStyle=orthogonalEdgeStyle;rounded=0;orthogonalLoop=1;jettySize=auto;html=1;curved=0;" edge="1" parent="1">
          <mxGeometry relative="1" as="geometry">
            <mxPoint x="70" y="520" as="sourcePoint" />
            <mxPoint x="190" y="520" as="targetPoint" />
          </mxGeometry>
        </mxCell>
        <mxCell id="oIkWuxOltCafDGJ3qNke-9" value="" style="html=1;points=[[0,0,0,0,5],[0,1,0,0,-5],[1,0,0,0,5],[1,1,0,0,-5]];perimeter=orthogonalPerimeter;outlineConnect=0;targetShapes=umlLifeline;portConstraint=eastwest;newEdgeStyle={&quot;curved&quot;:0,&quot;rounded&quot;:0};" vertex="1" parent="1">
          <mxGeometry x="60" y="460" width="10" height="80" as="geometry" />
        </mxCell>
        <mxCell id="oIkWuxOltCafDGJ3qNke-10" value="" style="html=1;points=[[0,0,0,0,5],[0,1,0,0,-5],[1,0,0,0,5],[1,1,0,0,-5]];perimeter=orthogonalPerimeter;outlineConnect=0;targetShapes=umlLifeline;portConstraint=eastwest;newEdgeStyle={&quot;curved&quot;:0,&quot;rounded&quot;:0};" vertex="1" parent="1">
          <mxGeometry x="190" y="460" width="10" height="80" as="geometry" />
        </mxCell>
        <mxCell id="oIkWuxOltCafDGJ3qNke-13" value="синхронный запрос" style="text;html=1;align=center;verticalAlign=middle;resizable=0;points=[];autosize=1;strokeColor=none;fillColor=none;" vertex="1" parent="1">
          <mxGeometry x="60" y="450" width="130" height="30" as="geometry" />
        </mxCell>
        <mxCell id="oIkWuxOltCafDGJ3qNke-14" value="асинхронный запрос" style="text;html=1;align=center;verticalAlign=middle;resizable=0;points=[];autosize=1;strokeColor=none;fillColor=none;" vertex="1" parent="1">
          <mxGeometry x="60" y="520" width="140" height="30" as="geometry" />
        </mxCell>
        <mxCell id="oIkWuxOltCafDGJ3qNke-16" style="edgeStyle=orthogonalEdgeStyle;rounded=0;orthogonalLoop=1;jettySize=auto;html=1;curved=0;endArrow=block;endFill=1;" edge="1" parent="1" source="oIkWuxOltCafDGJ3qNke-18" target="oIkWuxOltCafDGJ3qNke-19">
          <mxGeometry relative="1" as="geometry">
            <Array as="points">
              <mxPoint x="130" y="580" />
              <mxPoint x="130" y="580" />
            </Array>
          </mxGeometry>
        </mxCell>
        <mxCell id="oIkWuxOltCafDGJ3qNke-18" value="" style="html=1;points=[[0,0,0,0,5],[0,1,0,0,-5],[1,0,0,0,5],[1,1,0,0,-5]];perimeter=orthogonalPerimeter;outlineConnect=0;targetShapes=umlLifeline;portConstraint=eastwest;newEdgeStyle={&quot;curved&quot;:0,&quot;rounded&quot;:0};" vertex="1" parent="1">
          <mxGeometry x="60" y="560" width="10" height="80" as="geometry" />
        </mxCell>
        <mxCell id="oIkWuxOltCafDGJ3qNke-22" style="edgeStyle=orthogonalEdgeStyle;rounded=0;orthogonalLoop=1;jettySize=auto;html=1;curved=0;dashed=1;endArrow=block;endFill=1;" edge="1" parent="1">
          <mxGeometry relative="1" as="geometry">
            <mxPoint x="190" y="620.0000000000001" as="sourcePoint" />
            <mxPoint x="70" y="620.0000000000001" as="targetPoint" />
          </mxGeometry>
        </mxCell>
        <mxCell id="oIkWuxOltCafDGJ3qNke-19" value="" style="html=1;points=[[0,0,0,0,5],[0,1,0,0,-5],[1,0,0,0,5],[1,1,0,0,-5]];perimeter=orthogonalPerimeter;outlineConnect=0;targetShapes=umlLifeline;portConstraint=eastwest;newEdgeStyle={&quot;curved&quot;:0,&quot;rounded&quot;:0};" vertex="1" parent="1">
          <mxGeometry x="190" y="560" width="10" height="80" as="geometry" />
        </mxCell>
        <mxCell id="oIkWuxOltCafDGJ3qNke-20" value="запрос" style="text;html=1;align=center;verticalAlign=middle;resizable=0;points=[];autosize=1;strokeColor=none;fillColor=none;" vertex="1" parent="1">
          <mxGeometry x="95" y="550" width="60" height="30" as="geometry" />
        </mxCell>
        <mxCell id="oIkWuxOltCafDGJ3qNke-21" value="ответ" style="text;html=1;align=center;verticalAlign=middle;resizable=0;points=[];autosize=1;strokeColor=none;fillColor=none;" vertex="1" parent="1">
          <mxGeometry x="105" y="620" width="50" height="30" as="geometry" />
        </mxCell>
        <mxCell id="oIkWuxOltCafDGJ3qNke-24" value="frame" style="shape=umlFrame;whiteSpace=wrap;html=1;pointerEvents=0;" vertex="1" parent="1">
          <mxGeometry x="240" y="480" width="140" height="90" as="geometry" />
        </mxCell>
        <mxCell id="oIkWuxOltCafDGJ3qNke-25" value="циклы условия" style="text;html=1;align=center;verticalAlign=middle;resizable=0;points=[];autosize=1;strokeColor=none;fillColor=none;" vertex="1" parent="1">
          <mxGeometry x="240" y="450" width="110" height="30" as="geometry" />
        </mxCell>
        <mxCell id="oIkWuxOltCafDGJ3qNke-27" value="loginPage: Login Page" style="shape=umlLifeline;perimeter=lifelinePerimeter;whiteSpace=wrap;html=1;container=1;dropTarget=0;collapsible=0;recursiveResize=0;outlineConnect=0;portConstraint=eastwest;newEdgeStyle={&quot;curved&quot;:0,&quot;rounded&quot;:0};" vertex="1" parent="1">
          <mxGeometry x="670" y="80" width="100" height="510" as="geometry" />
        </mxCell>
        <mxCell id="oIkWuxOltCafDGJ3qNke-30" value="" style="html=1;points=[[0,0,0,0,5],[0,1,0,0,-5],[1,0,0,0,5],[1,1,0,0,-5]];perimeter=orthogonalPerimeter;outlineConnect=0;targetShapes=umlLifeline;portConstraint=eastwest;newEdgeStyle={&quot;curved&quot;:0,&quot;rounded&quot;:0};" vertex="1" parent="oIkWuxOltCafDGJ3qNke-27">
          <mxGeometry x="45" y="90" width="10" height="40" as="geometry" />
        </mxCell>
        <mxCell id="oIkWuxOltCafDGJ3qNke-28" value="authentication : Authentication Module" style="shape=umlLifeline;perimeter=lifelinePerimeter;whiteSpace=wrap;html=1;container=1;dropTarget=0;collapsible=0;recursiveResize=0;outlineConnect=0;portConstraint=eastwest;newEdgeStyle={&quot;curved&quot;:0,&quot;rounded&quot;:0};" vertex="1" parent="1">
          <mxGeometry x="840" y="80" width="100" height="530" as="geometry" />
        </mxCell>
        <mxCell id="oIkWuxOltCafDGJ3qNke-45" value="" style="html=1;points=[[0,0,0,0,5],[0,1,0,0,-5],[1,0,0,0,5],[1,1,0,0,-5]];perimeter=orthogonalPerimeter;outlineConnect=0;targetShapes=umlLifeline;portConstraint=eastwest;newEdgeStyle={&quot;curved&quot;:0,&quot;rounded&quot;:0};" vertex="1" parent="oIkWuxOltCafDGJ3qNke-28">
          <mxGeometry x="45" y="210" width="10" height="210" as="geometry" />
        </mxCell>
        <mxCell id="oIkWuxOltCafDGJ3qNke-76" style="edgeStyle=orthogonalEdgeStyle;rounded=0;orthogonalLoop=1;jettySize=auto;html=1;curved=0;endArrow=block;endFill=1;" edge="1" parent="oIkWuxOltCafDGJ3qNke-28">
          <mxGeometry relative="1" as="geometry">
            <mxPoint x="54.99999999999977" y="255" as="sourcePoint" />
            <mxPoint x="54.99999999999977" y="275" as="targetPoint" />
            <Array as="points">
              <mxPoint x="90" y="255" />
            </Array>
          </mxGeometry>
        </mxCell>
        <mxCell id="oIkWuxOltCafDGJ3qNke-31" style="edgeStyle=orthogonalEdgeStyle;rounded=0;orthogonalLoop=1;jettySize=auto;html=1;curved=0;endArrow=block;endFill=1;" edge="1" parent="1" source="oIkWuxOltCafDGJ3qNke-29" target="oIkWuxOltCafDGJ3qNke-30">
          <mxGeometry relative="1" as="geometry" />
        </mxCell>
        <mxCell id="oIkWuxOltCafDGJ3qNke-32" value="Enter a username" style="text;html=1;align=center;verticalAlign=middle;resizable=0;points=[];autosize=1;strokeColor=none;fillColor=none;" vertex="1" parent="1">
          <mxGeometry x="570" y="170" width="120" height="30" as="geometry" />
        </mxCell>
        <mxCell id="oIkWuxOltCafDGJ3qNke-37" value="" style="html=1;points=[[0,0,0,0,5],[0,1,0,0,-5],[1,0,0,0,5],[1,1,0,0,-5]];perimeter=orthogonalPerimeter;outlineConnect=0;targetShapes=umlLifeline;portConstraint=eastwest;newEdgeStyle={&quot;curved&quot;:0,&quot;rounded&quot;:0};" vertex="1" parent="1">
          <mxGeometry x="540" y="230" width="10" height="40" as="geometry" />
        </mxCell>
        <mxCell id="oIkWuxOltCafDGJ3qNke-38" value="" style="html=1;points=[[0,0,0,0,5],[0,1,0,0,-5],[1,0,0,0,5],[1,1,0,0,-5]];perimeter=orthogonalPerimeter;outlineConnect=0;targetShapes=umlLifeline;portConstraint=eastwest;newEdgeStyle={&quot;curved&quot;:0,&quot;rounded&quot;:0};" vertex="1" parent="1">
          <mxGeometry x="715" y="230" width="10" height="40" as="geometry" />
        </mxCell>
        <mxCell id="oIkWuxOltCafDGJ3qNke-39" style="edgeStyle=orthogonalEdgeStyle;rounded=0;orthogonalLoop=1;jettySize=auto;html=1;curved=0;endArrow=block;endFill=1;" edge="1" parent="1" source="oIkWuxOltCafDGJ3qNke-37" target="oIkWuxOltCafDGJ3qNke-38">
          <mxGeometry relative="1" as="geometry" />
        </mxCell>
        <mxCell id="oIkWuxOltCafDGJ3qNke-40" value="Enter a password" style="text;html=1;align=center;verticalAlign=middle;resizable=0;points=[];autosize=1;strokeColor=none;fillColor=none;" vertex="1" parent="1">
          <mxGeometry x="570" y="230" width="120" height="30" as="geometry" />
        </mxCell>
        <mxCell id="oIkWuxOltCafDGJ3qNke-41" value="" style="html=1;points=[[0,0,0,0,5],[0,1,0,0,-5],[1,0,0,0,5],[1,1,0,0,-5]];perimeter=orthogonalPerimeter;outlineConnect=0;targetShapes=umlLifeline;portConstraint=eastwest;newEdgeStyle={&quot;curved&quot;:0,&quot;rounded&quot;:0};" vertex="1" parent="1">
          <mxGeometry x="540" y="290" width="10" height="40" as="geometry" />
        </mxCell>
        <mxCell id="oIkWuxOltCafDGJ3qNke-46" style="edgeStyle=orthogonalEdgeStyle;rounded=0;orthogonalLoop=1;jettySize=auto;html=1;curved=0;endArrow=block;endFill=1;" edge="1" parent="1" source="oIkWuxOltCafDGJ3qNke-42" target="oIkWuxOltCafDGJ3qNke-45">
          <mxGeometry relative="1" as="geometry">
            <Array as="points">
              <mxPoint x="860" y="310" />
              <mxPoint x="860" y="310" />
            </Array>
          </mxGeometry>
        </mxCell>
        <mxCell id="oIkWuxOltCafDGJ3qNke-42" value="" style="html=1;points=[[0,0,0,0,5],[0,1,0,0,-5],[1,0,0,0,5],[1,1,0,0,-5]];perimeter=orthogonalPerimeter;outlineConnect=0;targetShapes=umlLifeline;portConstraint=eastwest;newEdgeStyle={&quot;curved&quot;:0,&quot;rounded&quot;:0};" vertex="1" parent="1">
          <mxGeometry x="715" y="290" width="10" height="40" as="geometry" />
        </mxCell>
        <mxCell id="oIkWuxOltCafDGJ3qNke-43" style="edgeStyle=orthogonalEdgeStyle;rounded=0;orthogonalLoop=1;jettySize=auto;html=1;curved=0;endArrow=block;endFill=1;" edge="1" parent="1" source="oIkWuxOltCafDGJ3qNke-41" target="oIkWuxOltCafDGJ3qNke-42">
          <mxGeometry relative="1" as="geometry" />
        </mxCell>
        <mxCell id="oIkWuxOltCafDGJ3qNke-44" value="Click on the Login button" style="text;html=1;align=center;verticalAlign=middle;resizable=0;points=[];autosize=1;strokeColor=none;fillColor=none;" vertex="1" parent="1">
          <mxGeometry x="550" y="290" width="160" height="30" as="geometry" />
        </mxCell>
        <mxCell id="oIkWuxOltCafDGJ3qNke-49" value="alt" style="shape=umlFrame;whiteSpace=wrap;html=1;pointerEvents=0;" vertex="1" parent="1">
          <mxGeometry x="450" y="365" width="610" height="200" as="geometry" />
        </mxCell>
        <mxCell id="oIkWuxOltCafDGJ3qNke-50" value="" style="endArrow=none;dashed=1;html=1;rounded=0;exitX=-0.003;exitY=0.499;exitDx=0;exitDy=0;exitPerimeter=0;entryX=1;entryY=0.5;entryDx=0;entryDy=0;entryPerimeter=0;" edge="1" parent="1" source="oIkWuxOltCafDGJ3qNke-49" target="oIkWuxOltCafDGJ3qNke-49">
          <mxGeometry width="50" height="50" relative="1" as="geometry">
            <mxPoint x="710" y="455" as="sourcePoint" />
            <mxPoint x="760" y="405" as="targetPoint" />
          </mxGeometry>
        </mxCell>
        <mxCell id="oIkWuxOltCafDGJ3qNke-51" value="correct" style="text;html=1;align=center;verticalAlign=middle;resizable=0;points=[];autosize=1;strokeColor=none;fillColor=none;" vertex="1" parent="1">
          <mxGeometry x="455" y="395" width="60" height="30" as="geometry" />
        </mxCell>
        <mxCell id="oIkWuxOltCafDGJ3qNke-52" value="incorrect" style="text;html=1;align=center;verticalAlign=middle;resizable=0;points=[];autosize=1;strokeColor=none;fillColor=none;" vertex="1" parent="1">
          <mxGeometry x="450" y="475" width="70" height="30" as="geometry" />
        </mxCell>
        <mxCell id="oIkWuxOltCafDGJ3qNke-53" value="" style="html=1;points=[[0,0,0,0,5],[0,1,0,0,-5],[1,0,0,0,5],[1,1,0,0,-5]];perimeter=orthogonalPerimeter;outlineConnect=0;targetShapes=umlLifeline;portConstraint=eastwest;newEdgeStyle={&quot;curved&quot;:0,&quot;rounded&quot;:0};" vertex="1" parent="1">
          <mxGeometry x="715" y="375" width="10" height="70" as="geometry" />
        </mxCell>
        <mxCell id="oIkWuxOltCafDGJ3qNke-54" style="edgeStyle=orthogonalEdgeStyle;rounded=0;orthogonalLoop=1;jettySize=auto;html=1;curved=0;dashed=1;endArrow=block;endFill=1;" edge="1" parent="1" target="oIkWuxOltCafDGJ3qNke-53">
          <mxGeometry relative="1" as="geometry">
            <mxPoint x="885" y="395.0526315789475" as="sourcePoint" />
            <Array as="points">
              <mxPoint x="850" y="395" />
              <mxPoint x="850" y="395" />
            </Array>
          </mxGeometry>
        </mxCell>
        <mxCell id="oIkWuxOltCafDGJ3qNke-56" value="User login accepted" style="text;html=1;align=center;verticalAlign=middle;resizable=0;points=[];autosize=1;strokeColor=none;fillColor=none;" vertex="1" parent="1">
          <mxGeometry x="740" y="375" width="130" height="30" as="geometry" />
        </mxCell>
        <mxCell id="oIkWuxOltCafDGJ3qNke-57" style="edgeStyle=orthogonalEdgeStyle;rounded=0;orthogonalLoop=1;jettySize=auto;html=1;curved=0;endArrow=block;endFill=1;" edge="1" parent="1" source="oIkWuxOltCafDGJ3qNke-53" target="oIkWuxOltCafDGJ3qNke-53">
          <mxGeometry relative="1" as="geometry">
            <Array as="points">
              <mxPoint x="870" y="415" />
            </Array>
          </mxGeometry>
        </mxCell>
        <mxCell id="oIkWuxOltCafDGJ3qNke-58" value="Redirect to the main page" style="text;html=1;align=center;verticalAlign=middle;resizable=0;points=[];autosize=1;strokeColor=none;fillColor=none;" vertex="1" parent="1">
          <mxGeometry x="715" y="415" width="160" height="30" as="geometry" />
        </mxCell>
        <mxCell id="oIkWuxOltCafDGJ3qNke-63" style="edgeStyle=orthogonalEdgeStyle;rounded=0;orthogonalLoop=1;jettySize=auto;html=1;curved=0;dashed=1;endArrow=block;endFill=1;" edge="1" parent="1" source="oIkWuxOltCafDGJ3qNke-59" target="oIkWuxOltCafDGJ3qNke-62">
          <mxGeometry relative="1" as="geometry" />
        </mxCell>
        <mxCell id="oIkWuxOltCafDGJ3qNke-59" value="" style="html=1;points=[[0,0,0,0,5],[0,1,0,0,-5],[1,0,0,0,5],[1,1,0,0,-5]];perimeter=orthogonalPerimeter;outlineConnect=0;targetShapes=umlLifeline;portConstraint=eastwest;newEdgeStyle={&quot;curved&quot;:0,&quot;rounded&quot;:0};" vertex="1" parent="1">
          <mxGeometry x="715" y="475" width="10" height="70" as="geometry" />
        </mxCell>
        <mxCell id="oIkWuxOltCafDGJ3qNke-60" style="edgeStyle=orthogonalEdgeStyle;rounded=0;orthogonalLoop=1;jettySize=auto;html=1;curved=0;dashed=1;endArrow=block;endFill=1;" edge="1" parent="1" target="oIkWuxOltCafDGJ3qNke-59">
          <mxGeometry relative="1" as="geometry">
            <mxPoint x="885" y="495.0526315789475" as="sourcePoint" />
            <Array as="points">
              <mxPoint x="760" y="495" />
              <mxPoint x="760" y="495" />
            </Array>
          </mxGeometry>
        </mxCell>
        <mxCell id="oIkWuxOltCafDGJ3qNke-61" value="User login denied" style="text;html=1;align=center;verticalAlign=middle;resizable=0;points=[];autosize=1;strokeColor=none;fillColor=none;" vertex="1" parent="1">
          <mxGeometry x="745" y="475" width="120" height="30" as="geometry" />
        </mxCell>
        <mxCell id="oIkWuxOltCafDGJ3qNke-62" value="" style="html=1;points=[[0,0,0,0,5],[0,1,0,0,-5],[1,0,0,0,5],[1,1,0,0,-5]];perimeter=orthogonalPerimeter;outlineConnect=0;targetShapes=umlLifeline;portConstraint=eastwest;newEdgeStyle={&quot;curved&quot;:0,&quot;rounded&quot;:0};" vertex="1" parent="1">
          <mxGeometry x="540" y="475" width="10" height="70" as="geometry" />
        </mxCell>
        <mxCell id="oIkWuxOltCafDGJ3qNke-64" value="Clear fields" style="text;html=1;align=center;verticalAlign=middle;resizable=0;points=[];autosize=1;strokeColor=none;fillColor=none;" vertex="1" parent="1">
          <mxGeometry x="590" y="485" width="80" height="30" as="geometry" />
        </mxCell>
        <mxCell id="oIkWuxOltCafDGJ3qNke-65" value="dataBase : Data Base" style="shape=umlLifeline;perimeter=lifelinePerimeter;whiteSpace=wrap;html=1;container=1;dropTarget=0;collapsible=0;recursiveResize=0;outlineConnect=0;portConstraint=eastwest;newEdgeStyle={&quot;curved&quot;:0,&quot;rounded&quot;:0};" vertex="1" parent="1">
          <mxGeometry x="1120" y="80" width="100" height="530" as="geometry" />
        </mxCell>
        <mxCell id="oIkWuxOltCafDGJ3qNke-66" value="" style="html=1;points=[[0,0,0,0,5],[0,1,0,0,-5],[1,0,0,0,5],[1,1,0,0,-5]];perimeter=orthogonalPerimeter;outlineConnect=0;targetShapes=umlLifeline;portConstraint=eastwest;newEdgeStyle={&quot;curved&quot;:0,&quot;rounded&quot;:0};" vertex="1" parent="oIkWuxOltCafDGJ3qNke-65">
          <mxGeometry x="45" y="210" width="10" height="80" as="geometry" />
        </mxCell>
        <mxCell id="oIkWuxOltCafDGJ3qNke-71" style="edgeStyle=orthogonalEdgeStyle;rounded=0;orthogonalLoop=1;jettySize=auto;html=1;curved=0;endArrow=block;endFill=1;" edge="1" parent="oIkWuxOltCafDGJ3qNke-65" source="oIkWuxOltCafDGJ3qNke-66" target="oIkWuxOltCafDGJ3qNke-66">
          <mxGeometry relative="1" as="geometry">
            <Array as="points">
              <mxPoint x="180" y="250" />
            </Array>
          </mxGeometry>
        </mxCell>
        <mxCell id="oIkWuxOltCafDGJ3qNke-67" style="edgeStyle=orthogonalEdgeStyle;rounded=0;orthogonalLoop=1;jettySize=auto;html=1;curved=0;endArrow=block;endFill=1;" edge="1" parent="1" source="oIkWuxOltCafDGJ3qNke-45" target="oIkWuxOltCafDGJ3qNke-66">
          <mxGeometry relative="1" as="geometry">
            <Array as="points">
              <mxPoint x="1060" y="320" />
              <mxPoint x="1060" y="320" />
            </Array>
          </mxGeometry>
        </mxCell>
        <mxCell id="oIkWuxOltCafDGJ3qNke-68" value="Search password in database by login" style="text;html=1;align=center;verticalAlign=middle;resizable=0;points=[];autosize=1;strokeColor=none;fillColor=none;" vertex="1" parent="1">
          <mxGeometry x="915" y="298" width="230" height="30" as="geometry" />
        </mxCell>
        <mxCell id="oIkWuxOltCafDGJ3qNke-69" style="edgeStyle=orthogonalEdgeStyle;rounded=0;orthogonalLoop=1;jettySize=auto;html=1;curved=0;endArrow=block;endFill=1;" edge="1" parent="1" source="oIkWuxOltCafDGJ3qNke-66" target="oIkWuxOltCafDGJ3qNke-45">
          <mxGeometry relative="1" as="geometry">
            <Array as="points">
              <mxPoint x="970" y="330" />
              <mxPoint x="970" y="330" />
            </Array>
          </mxGeometry>
        </mxCell>
        <mxCell id="oIkWuxOltCafDGJ3qNke-70" value="Get request from database" style="text;html=1;align=center;verticalAlign=middle;resizable=0;points=[];autosize=1;strokeColor=none;fillColor=none;" vertex="1" parent="1">
          <mxGeometry x="950" y="320" width="170" height="30" as="geometry" />
        </mxCell>
        <mxCell id="oIkWuxOltCafDGJ3qNke-72" value="Find password" style="text;html=1;align=center;verticalAlign=middle;resizable=0;points=[];autosize=1;strokeColor=none;fillColor=none;" vertex="1" parent="1">
          <mxGeometry x="1190" y="295" width="100" height="30" as="geometry" />
        </mxCell>
        <mxCell id="oIkWuxOltCafDGJ3qNke-77" value="Validate user data" style="text;html=1;align=center;verticalAlign=middle;resizable=0;points=[];autosize=1;strokeColor=none;fillColor=none;" vertex="1" parent="1">
          <mxGeometry x="920" y="335" width="120" height="30" as="geometry" />
        </mxCell>
        <mxCell id="oIkWuxOltCafDGJ3qNke-79" value="" style="shape=umlLifeline;perimeter=lifelinePerimeter;whiteSpace=wrap;html=1;container=1;dropTarget=0;collapsible=0;recursiveResize=0;outlineConnect=0;portConstraint=eastwest;newEdgeStyle={&quot;curved&quot;:0,&quot;rounded&quot;:0};participant=umlActor;" vertex="1" parent="1">
          <mxGeometry x="1975" y="120" width="20" height="420" as="geometry" />
        </mxCell>
        <mxCell id="oIkWuxOltCafDGJ3qNke-87" value="" style="html=1;points=[[0,0,0,0,5],[0,1,0,0,-5],[1,0,0,0,5],[1,1,0,0,-5]];perimeter=orthogonalPerimeter;outlineConnect=0;targetShapes=umlLifeline;portConstraint=eastwest;newEdgeStyle={&quot;curved&quot;:0,&quot;rounded&quot;:0};" vertex="1" parent="oIkWuxOltCafDGJ3qNke-79">
          <mxGeometry x="5" y="60" width="10" height="250" as="geometry" />
        </mxCell>
        <mxCell id="oIkWuxOltCafDGJ3qNke-80" value="productPage : Product Page" style="shape=umlLifeline;perimeter=lifelinePerimeter;whiteSpace=wrap;html=1;container=1;dropTarget=0;collapsible=0;recursiveResize=0;outlineConnect=0;portConstraint=eastwest;newEdgeStyle={&quot;curved&quot;:0,&quot;rounded&quot;:0};" vertex="1" parent="1">
          <mxGeometry x="2120" y="120" width="100" height="420" as="geometry" />
        </mxCell>
        <mxCell id="oIkWuxOltCafDGJ3qNke-86" value="" style="html=1;points=[[0,0,0,0,5],[0,1,0,0,-5],[1,0,0,0,5],[1,1,0,0,-5]];perimeter=orthogonalPerimeter;outlineConnect=0;targetShapes=umlLifeline;portConstraint=eastwest;newEdgeStyle={&quot;curved&quot;:0,&quot;rounded&quot;:0};" vertex="1" parent="oIkWuxOltCafDGJ3qNke-80">
          <mxGeometry x="45" y="60" width="10" height="50" as="geometry" />
        </mxCell>
        <mxCell id="oIkWuxOltCafDGJ3qNke-81" value="визуализировать процесс добавления товара в корзину отображая последовательность сообщений между объектами в системе" style="text;html=1;align=center;verticalAlign=middle;resizable=0;points=[];autosize=1;strokeColor=none;fillColor=none;" vertex="1" parent="1">
          <mxGeometry x="2110" y="630" width="740" height="30" as="geometry" />
        </mxCell>
        <mxCell id="oIkWuxOltCafDGJ3qNke-82" value="buyer" style="text;html=1;align=center;verticalAlign=middle;resizable=0;points=[];autosize=1;strokeColor=none;fillColor=none;" vertex="1" parent="1">
          <mxGeometry x="1960" y="98" width="50" height="30" as="geometry" />
        </mxCell>
        <mxCell id="oIkWuxOltCafDGJ3qNke-83" value="inventorySystem : InventorySystem" style="shape=umlLifeline;perimeter=lifelinePerimeter;whiteSpace=wrap;html=1;container=1;dropTarget=0;collapsible=0;recursiveResize=0;outlineConnect=0;portConstraint=eastwest;newEdgeStyle={&quot;curved&quot;:0,&quot;rounded&quot;:0};" vertex="1" parent="1">
          <mxGeometry x="2450" y="120" width="100" height="420" as="geometry" />
        </mxCell>
        <mxCell id="oIkWuxOltCafDGJ3qNke-90" value="" style="html=1;points=[[0,0,0,0,5],[0,1,0,0,-5],[1,0,0,0,5],[1,1,0,0,-5]];perimeter=orthogonalPerimeter;outlineConnect=0;targetShapes=umlLifeline;portConstraint=eastwest;newEdgeStyle={&quot;curved&quot;:0,&quot;rounded&quot;:0};" vertex="1" parent="oIkWuxOltCafDGJ3qNke-83">
          <mxGeometry x="45" y="60" width="10" height="230" as="geometry" />
        </mxCell>
        <mxCell id="oIkWuxOltCafDGJ3qNke-94" style="edgeStyle=orthogonalEdgeStyle;rounded=0;orthogonalLoop=1;jettySize=auto;html=1;curved=0;endArrow=block;endFill=1;" edge="1" parent="oIkWuxOltCafDGJ3qNke-83" source="oIkWuxOltCafDGJ3qNke-90" target="oIkWuxOltCafDGJ3qNke-90">
          <mxGeometry relative="1" as="geometry">
            <Array as="points">
              <mxPoint x="290" y="90" />
            </Array>
          </mxGeometry>
        </mxCell>
        <mxCell id="oIkWuxOltCafDGJ3qNke-84" value="shopingCart : Shoping Cart" style="shape=umlLifeline;perimeter=lifelinePerimeter;whiteSpace=wrap;html=1;container=1;dropTarget=0;collapsible=0;recursiveResize=0;outlineConnect=0;portConstraint=eastwest;newEdgeStyle={&quot;curved&quot;:0,&quot;rounded&quot;:0};" vertex="1" parent="1">
          <mxGeometry x="2280" y="120" width="100" height="420" as="geometry" />
        </mxCell>
        <mxCell id="oIkWuxOltCafDGJ3qNke-88" style="edgeStyle=orthogonalEdgeStyle;rounded=0;orthogonalLoop=1;jettySize=auto;html=1;curved=0;endArrow=block;endFill=1;" edge="1" parent="1" source="oIkWuxOltCafDGJ3qNke-87" target="oIkWuxOltCafDGJ3qNke-86">
          <mxGeometry relative="1" as="geometry">
            <Array as="points">
              <mxPoint x="2030" y="205" />
              <mxPoint x="2030" y="205" />
            </Array>
          </mxGeometry>
        </mxCell>
        <mxCell id="oIkWuxOltCafDGJ3qNke-89" value="click on the icon of the product" style="text;html=1;align=center;verticalAlign=middle;resizable=0;points=[];autosize=1;strokeColor=none;fillColor=none;" vertex="1" parent="1">
          <mxGeometry x="1980" y="178" width="190" height="30" as="geometry" />
        </mxCell>
        <mxCell id="oIkWuxOltCafDGJ3qNke-91" style="edgeStyle=orthogonalEdgeStyle;rounded=0;orthogonalLoop=1;jettySize=auto;html=1;curved=0;endArrow=block;endFill=1;" edge="1" parent="1" source="oIkWuxOltCafDGJ3qNke-86" target="oIkWuxOltCafDGJ3qNke-90">
          <mxGeometry relative="1" as="geometry">
            <Array as="points">
              <mxPoint x="2240" y="205" />
              <mxPoint x="2240" y="90" />
              <mxPoint x="2440" y="90" />
              <mxPoint x="2440" y="205" />
            </Array>
          </mxGeometry>
        </mxCell>
        <mxCell id="oIkWuxOltCafDGJ3qNke-92" value="checking product availability" style="text;html=1;align=center;verticalAlign=middle;resizable=0;points=[];autosize=1;strokeColor=none;fillColor=none;" vertex="1" parent="1">
          <mxGeometry x="2245" y="68" width="170" height="30" as="geometry" />
        </mxCell>
        <mxCell id="oIkWuxOltCafDGJ3qNke-95" value="checking product availability in database" style="text;html=1;align=center;verticalAlign=middle;resizable=0;points=[];autosize=1;strokeColor=none;fillColor=none;" vertex="1" parent="1">
          <mxGeometry x="2500" y="170" width="240" height="30" as="geometry" />
        </mxCell>
        <mxCell id="oIkWuxOltCafDGJ3qNke-99" value="alt" style="shape=umlFrame;whiteSpace=wrap;html=1;pointerEvents=0;" vertex="1" parent="1">
          <mxGeometry x="1860" y="237.5" width="490" height="222.5" as="geometry" />
        </mxCell>
        <mxCell id="oIkWuxOltCafDGJ3qNke-145" style="edgeStyle=orthogonalEdgeStyle;rounded=0;orthogonalLoop=1;jettySize=auto;html=1;curved=0;endArrow=block;endFill=1;" edge="1" parent="1" source="oIkWuxOltCafDGJ3qNke-101" target="oIkWuxOltCafDGJ3qNke-106">
          <mxGeometry relative="1" as="geometry">
            <Array as="points">
              <mxPoint x="2290" y="310" />
              <mxPoint x="2290" y="310" />
            </Array>
          </mxGeometry>
        </mxCell>
        <mxCell id="oIkWuxOltCafDGJ3qNke-146" style="edgeStyle=orthogonalEdgeStyle;rounded=0;orthogonalLoop=1;jettySize=auto;html=1;curved=0;endArrow=block;endFill=1;" edge="1" parent="1" source="oIkWuxOltCafDGJ3qNke-101" target="oIkWuxOltCafDGJ3qNke-107">
          <mxGeometry relative="1" as="geometry">
            <Array as="points">
              <mxPoint x="2290" y="400" />
              <mxPoint x="2290" y="400" />
            </Array>
          </mxGeometry>
        </mxCell>
        <mxCell id="oIkWuxOltCafDGJ3qNke-101" value="" style="html=1;points=[[0,0,0,0,5],[0,1,0,0,-5],[1,0,0,0,5],[1,1,0,0,-5]];perimeter=orthogonalPerimeter;outlineConnect=0;targetShapes=umlLifeline;portConstraint=eastwest;newEdgeStyle={&quot;curved&quot;:0,&quot;rounded&quot;:0};" vertex="1" parent="1">
          <mxGeometry x="2325" y="250" width="10" height="180" as="geometry" />
        </mxCell>
        <mxCell id="oIkWuxOltCafDGJ3qNke-102" value="" style="endArrow=none;dashed=1;html=1;rounded=0;entryX=1.002;entryY=0.552;entryDx=0;entryDy=0;entryPerimeter=0;exitX=0;exitY=0.558;exitDx=0;exitDy=0;exitPerimeter=0;" edge="1" parent="1" source="oIkWuxOltCafDGJ3qNke-99" target="oIkWuxOltCafDGJ3qNke-99">
          <mxGeometry width="50" height="50" relative="1" as="geometry">
            <mxPoint x="2100" y="360" as="sourcePoint" />
            <mxPoint x="2480" y="250" as="targetPoint" />
          </mxGeometry>
        </mxCell>
        <mxCell id="oIkWuxOltCafDGJ3qNke-103" value="product available" style="text;whiteSpace=wrap;" vertex="1" parent="1">
          <mxGeometry x="2020" y="262" width="120" height="30" as="geometry" />
        </mxCell>
        <mxCell id="oIkWuxOltCafDGJ3qNke-105" value="product unavailable" style="text;whiteSpace=wrap;" vertex="1" parent="1">
          <mxGeometry x="2020" y="375" width="140" height="35" as="geometry" />
        </mxCell>
        <mxCell id="oIkWuxOltCafDGJ3qNke-148" style="edgeStyle=orthogonalEdgeStyle;rounded=0;orthogonalLoop=1;jettySize=auto;html=1;curved=0;endArrow=block;endFill=1;dashed=1;" edge="1" parent="1" source="oIkWuxOltCafDGJ3qNke-106" target="oIkWuxOltCafDGJ3qNke-87">
          <mxGeometry relative="1" as="geometry">
            <Array as="points">
              <mxPoint x="2040" y="285" />
              <mxPoint x="2040" y="285" />
            </Array>
          </mxGeometry>
        </mxCell>
        <mxCell id="oIkWuxOltCafDGJ3qNke-106" value="" style="html=1;points=[[0,0,0,0,5],[0,1,0,0,-5],[1,0,0,0,5],[1,1,0,0,-5]];perimeter=orthogonalPerimeter;outlineConnect=0;targetShapes=umlLifeline;portConstraint=eastwest;newEdgeStyle={&quot;curved&quot;:0,&quot;rounded&quot;:0};" vertex="1" parent="1">
          <mxGeometry x="2165" y="250" width="10" height="70" as="geometry" />
        </mxCell>
        <mxCell id="oIkWuxOltCafDGJ3qNke-147" style="edgeStyle=orthogonalEdgeStyle;rounded=0;orthogonalLoop=1;jettySize=auto;html=1;curved=0;endArrow=block;endFill=1;dashed=1;" edge="1" parent="1" source="oIkWuxOltCafDGJ3qNke-107" target="oIkWuxOltCafDGJ3qNke-87">
          <mxGeometry relative="1" as="geometry">
            <Array as="points">
              <mxPoint x="2030" y="400" />
              <mxPoint x="2030" y="400" />
            </Array>
          </mxGeometry>
        </mxCell>
        <mxCell id="oIkWuxOltCafDGJ3qNke-107" value="" style="html=1;points=[[0,0,0,0,5],[0,1,0,0,-5],[1,0,0,0,5],[1,1,0,0,-5]];perimeter=orthogonalPerimeter;outlineConnect=0;targetShapes=umlLifeline;portConstraint=eastwest;newEdgeStyle={&quot;curved&quot;:0,&quot;rounded&quot;:0};" vertex="1" parent="1">
          <mxGeometry x="2165" y="375" width="10" height="50" as="geometry" />
        </mxCell>
        <mxCell id="oIkWuxOltCafDGJ3qNke-109" value="rersponse: product unavailable" style="text;html=1;align=center;verticalAlign=middle;resizable=0;points=[];autosize=1;strokeColor=none;fillColor=none;" vertex="1" parent="1">
          <mxGeometry x="2155" y="375" width="190" height="30" as="geometry" />
        </mxCell>
        <mxCell id="oIkWuxOltCafDGJ3qNke-110" value="rersponse: product available" style="text;html=1;align=center;verticalAlign=middle;resizable=0;points=[];autosize=1;strokeColor=none;fillColor=none;" vertex="1" parent="1">
          <mxGeometry x="2170" y="290" width="170" height="30" as="geometry" />
        </mxCell>
        <mxCell id="oIkWuxOltCafDGJ3qNke-113" value="" style="shape=umlLifeline;perimeter=lifelinePerimeter;whiteSpace=wrap;html=1;container=1;dropTarget=0;collapsible=0;recursiveResize=0;outlineConnect=0;portConstraint=eastwest;newEdgeStyle={&quot;curved&quot;:0,&quot;rounded&quot;:0};participant=umlActor;" vertex="1" parent="1">
          <mxGeometry x="2895" y="132" width="20" height="420" as="geometry" />
        </mxCell>
        <mxCell id="oIkWuxOltCafDGJ3qNke-114" value="" style="html=1;points=[[0,0,0,0,5],[0,1,0,0,-5],[1,0,0,0,5],[1,1,0,0,-5]];perimeter=orthogonalPerimeter;outlineConnect=0;targetShapes=umlLifeline;portConstraint=eastwest;newEdgeStyle={&quot;curved&quot;:0,&quot;rounded&quot;:0};" vertex="1" parent="oIkWuxOltCafDGJ3qNke-113">
          <mxGeometry x="5" y="60" width="10" height="140" as="geometry" />
        </mxCell>
        <mxCell id="oIkWuxOltCafDGJ3qNke-115" value="productPage : Product Page" style="shape=umlLifeline;perimeter=lifelinePerimeter;whiteSpace=wrap;html=1;container=1;dropTarget=0;collapsible=0;recursiveResize=0;outlineConnect=0;portConstraint=eastwest;newEdgeStyle={&quot;curved&quot;:0,&quot;rounded&quot;:0};" vertex="1" parent="1">
          <mxGeometry x="3040" y="132" width="100" height="420" as="geometry" />
        </mxCell>
        <mxCell id="oIkWuxOltCafDGJ3qNke-116" value="" style="html=1;points=[[0,0,0,0,5],[0,1,0,0,-5],[1,0,0,0,5],[1,1,0,0,-5]];perimeter=orthogonalPerimeter;outlineConnect=0;targetShapes=umlLifeline;portConstraint=eastwest;newEdgeStyle={&quot;curved&quot;:0,&quot;rounded&quot;:0};" vertex="1" parent="oIkWuxOltCafDGJ3qNke-115">
          <mxGeometry x="45" y="60" width="10" height="50" as="geometry" />
        </mxCell>
        <mxCell id="oIkWuxOltCafDGJ3qNke-117" value="buyer" style="text;html=1;align=center;verticalAlign=middle;resizable=0;points=[];autosize=1;strokeColor=none;fillColor=none;" vertex="1" parent="1">
          <mxGeometry x="2880" y="110" width="50" height="30" as="geometry" />
        </mxCell>
        <mxCell id="oIkWuxOltCafDGJ3qNke-118" value="inventorySystem : InventorySystem" style="shape=umlLifeline;perimeter=lifelinePerimeter;whiteSpace=wrap;html=1;container=1;dropTarget=0;collapsible=0;recursiveResize=0;outlineConnect=0;portConstraint=eastwest;newEdgeStyle={&quot;curved&quot;:0,&quot;rounded&quot;:0};" vertex="1" parent="1">
          <mxGeometry x="3370" y="132" width="100" height="420" as="geometry" />
        </mxCell>
        <mxCell id="oIkWuxOltCafDGJ3qNke-119" value="" style="html=1;points=[[0,0,0,0,5],[0,1,0,0,-5],[1,0,0,0,5],[1,1,0,0,-5]];perimeter=orthogonalPerimeter;outlineConnect=0;targetShapes=umlLifeline;portConstraint=eastwest;newEdgeStyle={&quot;curved&quot;:0,&quot;rounded&quot;:0};" vertex="1" parent="oIkWuxOltCafDGJ3qNke-118">
          <mxGeometry x="45" y="60" width="10" height="140" as="geometry" />
        </mxCell>
        <mxCell id="oIkWuxOltCafDGJ3qNke-121" value="shopingCart : Shoping Cart" style="shape=umlLifeline;perimeter=lifelinePerimeter;whiteSpace=wrap;html=1;container=1;dropTarget=0;collapsible=0;recursiveResize=0;outlineConnect=0;portConstraint=eastwest;newEdgeStyle={&quot;curved&quot;:0,&quot;rounded&quot;:0};" vertex="1" parent="1">
          <mxGeometry x="3200" y="132" width="100" height="420" as="geometry" />
        </mxCell>
        <mxCell id="oIkWuxOltCafDGJ3qNke-123" style="edgeStyle=orthogonalEdgeStyle;rounded=0;orthogonalLoop=1;jettySize=auto;html=1;curved=0;endArrow=block;endFill=1;" edge="1" parent="1" source="oIkWuxOltCafDGJ3qNke-114" target="oIkWuxOltCafDGJ3qNke-116">
          <mxGeometry relative="1" as="geometry">
            <Array as="points">
              <mxPoint x="2960" y="217" />
              <mxPoint x="2960" y="217" />
            </Array>
          </mxGeometry>
        </mxCell>
        <mxCell id="oIkWuxOltCafDGJ3qNke-124" value="click on the icon of the product" style="text;html=1;align=center;verticalAlign=middle;resizable=0;points=[];autosize=1;strokeColor=none;fillColor=none;" vertex="1" parent="1">
          <mxGeometry x="2900" y="190" width="190" height="30" as="geometry" />
        </mxCell>
        <mxCell id="oIkWuxOltCafDGJ3qNke-125" style="edgeStyle=orthogonalEdgeStyle;rounded=0;orthogonalLoop=1;jettySize=auto;html=1;curved=0;endArrow=block;endFill=1;" edge="1" parent="1" source="oIkWuxOltCafDGJ3qNke-116" target="oIkWuxOltCafDGJ3qNke-119">
          <mxGeometry relative="1" as="geometry">
            <Array as="points">
              <mxPoint x="3140" y="217" />
              <mxPoint x="3140" y="217" />
            </Array>
          </mxGeometry>
        </mxCell>
        <mxCell id="oIkWuxOltCafDGJ3qNke-126" value="checking product availability" style="text;html=1;align=center;verticalAlign=middle;resizable=0;points=[];autosize=1;strokeColor=none;fillColor=none;" vertex="1" parent="1">
          <mxGeometry x="3180" y="212" width="170" height="30" as="geometry" />
        </mxCell>
        <mxCell id="oIkWuxOltCafDGJ3qNke-127" value="checking product availability in database" style="text;html=1;align=center;verticalAlign=middle;resizable=0;points=[];autosize=1;strokeColor=none;fillColor=none;" vertex="1" parent="1">
          <mxGeometry x="3420" y="182" width="240" height="30" as="geometry" />
        </mxCell>
        <mxCell id="oIkWuxOltCafDGJ3qNke-130" value="" style="html=1;points=[[0,0,0,0,5],[0,1,0,0,-5],[1,0,0,0,5],[1,1,0,0,-5]];perimeter=orthogonalPerimeter;outlineConnect=0;targetShapes=umlLifeline;portConstraint=eastwest;newEdgeStyle={&quot;curved&quot;:0,&quot;rounded&quot;:0};" vertex="1" parent="1">
          <mxGeometry x="3245" y="262" width="10" height="50" as="geometry" />
        </mxCell>
        <mxCell id="oIkWuxOltCafDGJ3qNke-133" style="edgeStyle=orthogonalEdgeStyle;rounded=0;orthogonalLoop=1;jettySize=auto;html=1;curved=0;dashed=1;endArrow=block;endFill=1;" edge="1" parent="1" source="oIkWuxOltCafDGJ3qNke-119" target="oIkWuxOltCafDGJ3qNke-130">
          <mxGeometry relative="1" as="geometry">
            <Array as="points">
              <mxPoint x="3380" y="287" />
              <mxPoint x="3380" y="287" />
            </Array>
          </mxGeometry>
        </mxCell>
        <mxCell id="oIkWuxOltCafDGJ3qNke-142" style="edgeStyle=orthogonalEdgeStyle;rounded=0;orthogonalLoop=1;jettySize=auto;html=1;curved=0;endArrow=block;endFill=1;" edge="1" parent="1" source="oIkWuxOltCafDGJ3qNke-135" target="oIkWuxOltCafDGJ3qNke-114">
          <mxGeometry relative="1" as="geometry">
            <Array as="points">
              <mxPoint x="3040" y="300" />
              <mxPoint x="3040" y="300" />
            </Array>
          </mxGeometry>
        </mxCell>
        <mxCell id="oIkWuxOltCafDGJ3qNke-135" value="" style="html=1;points=[[0,0,0,0,5],[0,1,0,0,-5],[1,0,0,0,5],[1,1,0,0,-5]];perimeter=orthogonalPerimeter;outlineConnect=0;targetShapes=umlLifeline;portConstraint=eastwest;newEdgeStyle={&quot;curved&quot;:0,&quot;rounded&quot;:0};" vertex="1" parent="1">
          <mxGeometry x="3085" y="262" width="10" height="70" as="geometry" />
        </mxCell>
        <mxCell id="oIkWuxOltCafDGJ3qNke-139" value="rersponse: product available" style="text;html=1;align=center;verticalAlign=middle;resizable=0;points=[];autosize=1;strokeColor=none;fillColor=none;" vertex="1" parent="1">
          <mxGeometry x="3085" y="292" width="170" height="30" as="geometry" />
        </mxCell>
        <mxCell id="oIkWuxOltCafDGJ3qNke-140" style="edgeStyle=orthogonalEdgeStyle;rounded=0;orthogonalLoop=1;jettySize=auto;html=1;curved=0;dashed=1;endArrow=block;endFill=1;" edge="1" parent="1" source="oIkWuxOltCafDGJ3qNke-119" target="oIkWuxOltCafDGJ3qNke-135">
          <mxGeometry relative="1" as="geometry">
            <Array as="points">
              <mxPoint x="3280" y="322" />
              <mxPoint x="3280" y="322" />
            </Array>
          </mxGeometry>
        </mxCell>
        <mxCell id="oIkWuxOltCafDGJ3qNke-141" value="add product to cart" style="text;html=1;align=center;verticalAlign=middle;resizable=0;points=[];autosize=1;strokeColor=none;fillColor=none;" vertex="1" parent="1">
          <mxGeometry x="3280" y="262" width="120" height="30" as="geometry" />
        </mxCell>
        <mxCell id="oIkWuxOltCafDGJ3qNke-143" value="&lt;span style=&quot;color: rgb(0, 0, 0); font-family: Helvetica; font-size: 12px; font-style: normal; font-variant-ligatures: normal; font-variant-caps: normal; font-weight: 400; letter-spacing: normal; orphans: 2; text-align: center; text-indent: 0px; text-transform: none; widows: 2; word-spacing: 0px; -webkit-text-stroke-width: 0px; white-space: nowrap; background-color: rgb(251, 251, 251); text-decoration-thickness: initial; text-decoration-style: initial; text-decoration-color: initial; display: inline !important; float: none;&quot;&gt;product available&lt;/span&gt;" style="text;whiteSpace=wrap;html=1;" vertex="1" parent="1">
          <mxGeometry x="2950" y="277" width="100" height="23" as="geometry" />
        </mxCell>
        <mxCell id="oIkWuxOltCafDGJ3qNke-120" style="edgeStyle=orthogonalEdgeStyle;rounded=0;orthogonalLoop=1;jettySize=auto;html=1;curved=0;endArrow=block;endFill=1;" edge="1" parent="1">
          <mxGeometry relative="1" as="geometry">
            <Array as="points">
              <mxPoint x="3670" y="210" />
            </Array>
            <mxPoint x="3425" y="210.0000000000001" as="sourcePoint" />
            <mxPoint x="3425" y="233.99999999999977" as="targetPoint" />
          </mxGeometry>
        </mxCell>
        <mxCell id="oIkWuxOltCafDGJ3qNke-144" style="edgeStyle=orthogonalEdgeStyle;rounded=0;orthogonalLoop=1;jettySize=auto;html=1;curved=0;endArrow=block;endFill=1;dashed=1;" edge="1" parent="1" source="oIkWuxOltCafDGJ3qNke-90" target="oIkWuxOltCafDGJ3qNke-101">
          <mxGeometry relative="1" as="geometry">
            <Array as="points">
              <mxPoint x="2420" y="360" />
              <mxPoint x="2420" y="360" />
            </Array>
          </mxGeometry>
        </mxCell>
        <mxCell id="oIkWuxOltCafDGJ3qNke-149" value="product available" style="text;whiteSpace=wrap;" vertex="1" parent="1">
          <mxGeometry x="1860" y="268" width="120" height="30" as="geometry" />
        </mxCell>
        <mxCell id="oIkWuxOltCafDGJ3qNke-150" value="product unavailable" style="text;whiteSpace=wrap;" vertex="1" parent="1">
          <mxGeometry x="1860" y="365" width="115" height="35" as="geometry" />
        </mxCell>
        <mxCell id="oIkWuxOltCafDGJ3qNke-151" value="&lt;span style=&quot;color: rgb(0, 0, 0); font-family: Helvetica; font-size: 12px; font-style: normal; font-variant-ligatures: normal; font-variant-caps: normal; font-weight: 400; letter-spacing: normal; orphans: 2; text-align: center; text-indent: 0px; text-transform: none; widows: 2; word-spacing: 0px; -webkit-text-stroke-width: 0px; white-space: nowrap; background-color: rgb(251, 251, 251); text-decoration-thickness: initial; text-decoration-style: initial; text-decoration-color: initial; display: inline !important; float: none;&quot;&gt;rersponse&lt;/span&gt;" style="text;whiteSpace=wrap;html=1;" vertex="1" parent="1">
          <mxGeometry x="2370" y="335" width="90" height="35" as="geometry" />
        </mxCell>
      </root>
    </mxGraphModel>
  </diagram>
</mxfile>
